<svg viewBox="0 0 512.00025 512" xmlns="http://www.w3.org/2000/svg"><path d="m511.601562 217.714844c-1.1875-5.054688-4.902343-9.136719-9.824218-10.789063l-33.960938-11.410156 13.503906-148.539063c.402344-4.433593-1.183593-8.816406-4.332031-11.964843-3.148437-3.148438-7.539062-4.734375-11.964843-4.332031l-148.535157 13.503906-11.410156-33.960938c-1.652344-4.921875-5.734375-8.636718-10.789063-9.824218-5.054687-1.1875-10.363281.324218-14.035156 3.996093-21.773437 21.773438-38.414062 47.140625-49.007812 74.1875l-11.582032-34.480469c-1.652343-4.921874-5.734374-8.640624-10.789062-9.828124-5.054688-1.183594-10.367188.324218-14.039062 3.996093-29.503907 29.507813-51.355469 64.347657-64.0625 101.386719l-14.636719-43.5625c-1.652344-4.921875-5.734375-8.640625-10.789063-9.828125-5.054687-1.183594-10.363281.324219-14.035156 3.996094-52.03125 52.03125-84.078125 117.988281-90.234375 185.714843-5.75 63.265626 11.640625 121.109376 49.117187 164.617188l-45.789062 45.785156c-5.855469 5.855469-5.855469 15.355469 0 21.210938 2.929688 2.929687 6.769531 4.394531 10.605469 4.394531 3.839843 0 7.679687-1.464844 10.609375-4.394531l45.785156-45.785156c37.828125 32.460937 87.46875 50.175781 141.441406 50.175781 7.644532 0 15.4375-.355469 23.171875-1.058594 67.730469-6.15625 133.6875-38.203125 185.71875-90.234375 3.671875-3.671875 5.183594-8.980469 3.996094-14.035156-1.1875-5.054688-4.90625-9.136719-9.828125-10.792969l-43.5625-14.632813c37.042969-12.707031 71.882812-34.558593 101.386719-64.066406 3.671875-3.671875 5.183593-8.980468 3.996093-14.035156s-4.90625-9.136719-9.828124-10.789062l-34.476563-11.585938c27.042969-10.589844 52.410156-27.226562 74.1875-49 3.667969-3.671875 5.179687-8.980469 3.992187-14.035156zm-61.785156-155.53125-11.230468 123.511718-84.042969-28.238281-28.234375-84.046875zm-164.90625-17.792969 6.761719 20.121094c.011719.039062.027344.078125.039063.117187l27.160156 80.84375-68.835938-23.125c4.625-27.585937 16.65625-54.402344 34.875-77.957031zm-85.539062 33.503906 47.042968 140.03125-96.199218-32.320312c5.796875-38.34375 22.851562-75.617188 49.15625-107.710938zm-103.605469 51.75 60.082031 178.847657-123.539062-41.507813c6.90625-49.082031 29.007812-96.808594 63.457031-137.339844zm117.082031 352.335938c-51.367187 0-97.976562-18.320313-131.242187-51.585938-33.972657-33.976562-51.957031-80.496093-51.597657-132.535156l128.644532 43.222656 9.179687 3.082031 46.300781 137.8125c-.429687 0-.855468.003907-1.285156.003907zm32.164063-2.292969-41.507813-123.535156 178.847656 60.082031c-40.527343 34.449219-88.253906 56.550781-137.339843 63.453125zm-53.492188-159.210938-33.832031-100.714843 100.710938 33.835937 33.835937 100.714844zm134.871094 41.308594-32.316406-96.203125 140.035156 47.046875c-32.09375 26.300782-69.367187 43.355469-107.71875 49.15625zm-44.300781-131.875-24.671875-73.4375 73.4375 24.671875 24.667969 73.4375zm107.5625 32.054688-23.125-68.835938 101.078125 33.960938c-23.554688 18.21875-50.371094 30.246094-77.953125 34.875zm0 0" fill="#000000" style="fill: rgb(255, 255, 255);"></path></svg>