<?xml version="1.0" standalone="no"?>
<!DOCTYPE svg PUBLIC "-//W3C//DTD SVG 20010904//EN"
 "http://www.w3.org/TR/2001/REC-SVG-20010904/DTD/svg10.dtd">
<svg version="1.0" xmlns="http://www.w3.org/2000/svg"
 width="1280.000000pt" height="1280.000000pt" viewBox="0 0 1280.000000 1280.000000"
 preserveAspectRatio="xMidYMid meet">
<metadata>
Created by potrace 1.15, written by Peter Selinger 2001-2017
</metadata>
<g transform="translate(0.000000,1280.000000) scale(0.100000,-0.100000)"
fill="#ffffff" stroke="none">
<path d="M4918 11930 c-207 -33 -372 -115 -512 -256 -173 -172 -259 -382 -259
-629 1 -244 83 -443 253 -615 95 -96 181 -157 282 -198 37 -15 68 -30 68 -33
0 -4 -29 -53 -65 -110 -556 -884 -563 -1991 -21 -2882 36 -60 66 -110 66 -112
0 -2 -20 -13 -45 -25 -52 -25 -166 -144 -213 -222 -45 -76 -73 -161 -79 -243
-8 -114 50 -403 107 -532 l18 -41 -131 -6 c-73 -3 -402 -7 -733 -10 l-601 -4
-2 51 c-1 28 -4 54 -6 57 -4 7 -19 154 -30 290 -3 41 -10 111 -15 155 -5 44
-12 109 -15 145 -3 36 -8 81 -10 100 -2 19 -7 62 -10 95 -3 33 -8 74 -10 90
-2 17 -16 116 -30 220 -14 105 -30 224 -36 265 -16 125 -18 144 -24 167 -3 12
-7 39 -10 60 -4 33 -14 91 -29 168 -7 41 -66 187 -98 244 -89 159 -207 258
-366 307 -75 23 -105 27 -212 27 -91 0 -141 -5 -185 -18 -33 -9 -64 -18 -70
-19 -41 -9 -149 -73 -191 -115 -95 -93 -148 -212 -170 -376 -23 -173 -23 -176
-39 -671 l-5 -141 25 -11 c88 -40 305 -41 418 -1 79 28 74 15 82 219 11 276
16 323 47 423 27 92 71 137 131 137 48 0 80 -26 111 -87 18 -36 50 -183 61
-278 3 -33 11 -91 16 -130 12 -90 56 -479 64 -570 3 -38 8 -86 10 -105 11 -91
14 -122 25 -215 7 -55 13 -116 15 -135 2 -19 10 -88 19 -153 21 -159 21 -167
-7 -167 -57 0 -222 -61 -262 -97 -45 -40 -127 -148 -155 -204 -110 -217 -66
-493 105 -664 104 -104 228 -155 375 -155 l87 0 12 -112 c7 -62 15 -138 18
-168 3 -30 9 -60 15 -67 18 -23 83 -37 173 -37 104 -1 165 13 253 57 l63 32
-6 90 c-3 50 -9 118 -14 152 -4 35 -5 67 -2 71 6 8 1273 -4 1297 -12 8 -3 7
-28 -2 -88 -7 -45 -21 -213 -30 -372 -20 -320 -15 -468 26 -831 56 -490 82
-632 144 -778 19 -45 59 -141 89 -213 90 -215 141 -313 226 -433 91 -127 99
-156 49 -166 -18 -3 -76 -19 -128 -35 -52 -15 -152 -44 -223 -64 -159 -44
-263 -92 -315 -144 -171 -171 -208 -672 -60 -809 65 -61 183 -95 391 -114 147
-14 984 -6 1157 10 304 29 457 64 547 124 40 27 55 47 94 124 64 129 123 282
152 393 13 52 28 95 33 95 5 0 61 -7 124 -15 227 -29 580 -14 817 36 31 6 32
5 43 -37 54 -212 162 -483 219 -551 45 -54 105 -85 214 -113 220 -56 599 -79
1172 -72 447 5 526 13 649 59 80 29 146 95 172 169 16 45 19 83 19 219 0 141
-4 176 -23 243 -64 224 -148 300 -418 377 -214 61 -349 99 -376 105 -47 9 -35
46 62 176 79 106 167 272 207 389 18 52 45 159 60 238 26 133 29 143 48 137
124 -38 134 -40 295 -40 149 0 170 2 221 23 75 30 138 87 199 180 163 248 185
536 75 975 -141 559 -369 1123 -589 1457 -53 80 -96 148 -96 152 0 4 21 22 48
40 26 17 80 65 120 106 l74 74 86 -52 c247 -150 661 -437 758 -526 45 -42 93
-107 153 -206 75 -127 116 -155 186 -128 45 17 134 110 238 250 55 74 157 203
226 285 212 252 286 358 312 444 11 36 10 47 -4 77 -14 28 -31 41 -85 66 -173
78 -210 100 -317 194 -60 53 -146 123 -190 156 -204 153 -969 577 -1275 706
-128 54 -294 106 -414 131 -54 11 -100 22 -102 24 -2 2 14 43 37 92 185 395
267 791 256 1230 -10 341 -56 587 -168 890 -56 152 -174 389 -258 517 l-69
107 75 36 c251 119 431 349 494 630 21 93 15 293 -10 390 -113 428 -527 717
-958 666 -375 -44 -679 -310 -766 -670 -17 -71 -25 -91 -37 -87 -8 3 -94 32
-190 65 -186 64 -396 111 -585 132 -144 17 -471 16 -610 0 -234 -27 -496 -92
-701 -172 -58 -23 -107 -39 -109 -38 -2 2 -13 44 -24 92 -76 322 -332 580
-653 657 -97 23 -249 33 -330 20z"/>
</g>
</svg>
