<svg width="0" height="0" class="hidden">
  <symbol version="1.1" xmlns="http://www.w3.org/2000/svg" viewBox="0 0 98 128" id="treewhite">
    <path fill="#fff" d="M45.98 3.873c-0.649 0.673-5.252 6.277-10.228 12.453s-11.68 14.49-14.896 18.476c-3.216 3.986-5.848 7.42-5.848 7.63 0 0.212 14.772 0.382 33.151 0.382 30.079 0 33.126-0.065 32.882-0.7-0.148-0.385-3.139-4.208-6.648-8.496s-9.070-11.14-12.358-15.227l-5.978-7.43v5.529c0 5.43 0.276 6.654 2.045 9.053 0.066 0.090 1.058 0.339 2.204 0.553 3.969 0.742 4.637 2.432 2.079 5.264-1.563 1.73-2.118 4.316-1.234 5.747 1.091 1.766-2.030 3.34-4.375 2.205-2.196-1.063-3.177-1.115-4.692-0.249-3.155 1.804-5.112 0.489-4.685-3.147 0.286-2.43 0.261-2.503-1.485-4.397-2.508-2.721-2.067-4.651 1.193-5.228 2.918-0.517 3.208-0.713 4.323-2.915 1.032-2.038 1.095-2.568 1.095-9.396v-7.237l-1.361-1.713c-2.255-2.837-3.333-3.077-5.183-1.156zM53.277 27.177c-0.436 0.588-1.429 1.393-2.207 1.789-1.903 0.967-1.882 0.927-1.007 1.894 0.424 0.468 0.872 1.611 0.997 2.541l0.227 1.689h5.872l0.084-1.511c0.046-0.831 0.489-2.059 0.983-2.728l0.899-1.216-1.528-0.504c-0.84-0.277-1.978-1.071-2.528-1.764l-1-1.259-0.792 1.070zM20.916 55.005c-3.857 4.763-8.154 10.044-9.55 11.737-3.369 4.084-3.653 3.879 5.381 3.879h7.919l-0.587-1.132c-1.241-2.391 0.142-3.923 4.119-4.564 2.754-0.444 4.907-1.426 4.907-2.24 0-0.226 0.596-1.422 1.324-2.657 1.288-2.184 1.324-2.404 1.324-7.964v-5.719h-7.824l-7.012 8.66zM39.283 51.788v5.444l1.832 3.372c1.978 3.64 2.382 3.912 6.673 4.492 3.291 0.445 4.349 2.018 3.2 4.752-0.306 0.729 0.722 0.772 18.076 0.772 13.193 0 18.356-0.138 18.239-0.486-0.089-0.267-4.409-5.729-9.6-12.138l-9.438-11.652h-28.984v5.444zM36.706 63.308c-0.961 2.657-4.631 5.094-7.685 5.103-1.14 0.004-0.953 0.537 0.781 2.218 1.871 1.813 2.553 4.063 2.152 7.090l-0.299 2.252 1.938-0.997c2.584-1.33 5.378-1.35 7.839-0.057 2.312 1.215 2.276 1.237 1.838-1.155-0.583-3.179 0.013-4.882 2.748-7.853l1.265-1.374-2.179-0.289c-2.791-0.37-5.369-2.216-6.453-4.619-1.004-2.226-1.242-2.265-1.946-0.319zM15.669 79.737c-2.427 3.043-6.35 7.945-8.717 10.892s-4.303 5.511-4.303 5.696c0 0.185 20.458 0.337 45.462 0.337s45.462-0.161 45.462-0.359c0-0.197-3.982-5.262-8.849-11.255l-8.849-10.897h-14.492c-16.645 0-15.169-0.484-14.44 4.732 0.72 5.153-1.238 6.271-6.335 3.618-2.849-1.483-3.172-1.468-6.716 0.313-4.617 2.32-6.551 0.885-5.705-4.234 0.729-4.413 0.709-4.434-4.067-4.403l-4.035 0.026-4.414 5.533zM43.697 111.711c0 14.076 0.139 14.498 4.779 14.517 1.040 0.004 1.845-0.371 2.759-1.284l1.29-1.29v-23.461h-8.828v11.518z"></path>
  </symbol>
  <symbol version="1.1" xmlns="http://www.w3.org/2000/svg" viewBox="0 0 98 128" id="tree">
    <path stroke="currentColor" fill="none" stroke-width="1.5" d="M45.98 3.873c-0.649 0.673-5.252 6.277-10.228 12.453s-11.68 14.49-14.896 18.476c-3.216 3.986-5.848 7.42-5.848 7.63 0 0.212 14.772 0.382 33.151 0.382 30.079 0 33.126-0.065 32.882-0.7-0.148-0.385-3.139-4.208-6.648-8.496s-9.070-11.14-12.358-15.227l-5.978-7.43v5.529c0 5.43 0.276 6.654 2.045 9.053 0.066 0.090 1.058 0.339 2.204 0.553 3.969 0.742 4.637 2.432 2.079 5.264-1.563 1.73-2.118 4.316-1.234 5.747 1.091 1.766-2.030 3.34-4.375 2.205-2.196-1.063-3.177-1.115-4.692-0.249-3.155 1.804-5.112 0.489-4.685-3.147 0.286-2.43 0.261-2.503-1.485-4.397-2.508-2.721-2.067-4.651 1.193-5.228 2.918-0.517 3.208-0.713 4.323-2.915 1.032-2.038 1.095-2.568 1.095-9.396v-7.237l-1.361-1.713c-2.255-2.837-3.333-3.077-5.183-1.156zM53.277 27.177c-0.436 0.588-1.429 1.393-2.207 1.789-1.903 0.967-1.882 0.927-1.007 1.894 0.424 0.468 0.872 1.611 0.997 2.541l0.227 1.689h5.872l0.084-1.511c0.046-0.831 0.489-2.059 0.983-2.728l0.899-1.216-1.528-0.504c-0.84-0.277-1.978-1.071-2.528-1.764l-1-1.259-0.792 1.070zM20.916 55.005c-3.857 4.763-8.154 10.044-9.55 11.737-3.369 4.084-3.653 3.879 5.381 3.879h7.919l-0.587-1.132c-1.241-2.391 0.142-3.923 4.119-4.564 2.754-0.444 4.907-1.426 4.907-2.24 0-0.226 0.596-1.422 1.324-2.657 1.288-2.184 1.324-2.404 1.324-7.964v-5.719h-7.824l-7.012 8.66zM39.283 51.788v5.444l1.832 3.372c1.978 3.64 2.382 3.912 6.673 4.492 3.291 0.445 4.349 2.018 3.2 4.752-0.306 0.729 0.722 0.772 18.076 0.772 13.193 0 18.356-0.138 18.239-0.486-0.089-0.267-4.409-5.729-9.6-12.138l-9.438-11.652h-28.984v5.444zM36.706 63.308c-0.961 2.657-4.631 5.094-7.685 5.103-1.14 0.004-0.953 0.537 0.781 2.218 1.871 1.813 2.553 4.063 2.152 7.090l-0.299 2.252 1.938-0.997c2.584-1.33 5.378-1.35 7.839-0.057 2.312 1.215 2.276 1.237 1.838-1.155-0.583-3.179 0.013-4.882 2.748-7.853l1.265-1.374-2.179-0.289c-2.791-0.37-5.369-2.216-6.453-4.619-1.004-2.226-1.242-2.265-1.946-0.319zM15.669 79.737c-2.427 3.043-6.35 7.945-8.717 10.892s-4.303 5.511-4.303 5.696c0 0.185 20.458 0.337 45.462 0.337s45.462-0.161 45.462-0.359c0-0.197-3.982-5.262-8.849-11.255l-8.849-10.897h-14.492c-16.645 0-15.169-0.484-14.44 4.732 0.72 5.153-1.238 6.271-6.335 3.618-2.849-1.483-3.172-1.468-6.716 0.313-4.617 2.32-6.551 0.885-5.705-4.234 0.729-4.413 0.709-4.434-4.067-4.403l-4.035 0.026-4.414 5.533zM43.697 111.711c0 14.076 0.139 14.498 4.779 14.517 1.040 0.004 1.845-0.371 2.759-1.284l1.29-1.29v-23.461h-8.828v11.518z"></path>
  </symbol>
  <symbol version="1.1" xmlns="http://www.w3.org/2000/svg" viewBox="0 0 64 64" id="snowflake">
    <path fill="#fff" d="M30.617 1.235c-3.706 1.331-4.492 6.024-1.357 8.098 0.27 0.179 0.491 0.361 0.491 0.406s0.119 0.091 0.264 0.102c0.145 0.011 0.281 0.037 0.302 0.058s0.070 1.405 0.11 3.075l0.072 3.037-1.155-0.779c-0.636-0.428-1.213-0.839-1.283-0.912-0.988-1.034-2.485-1.111-3.066-0.157-0.492 0.807-0.245 1.595 0.723 2.314 0.36 0.267 0.613 0.526 0.563 0.577s-0.035 0.078 0.033 0.061c0.143-0.035 0.594 0.137 0.688 0.262 0.034 0.046 0.372 0.299 0.75 0.564s0.913 0.642 1.187 0.839c0.275 0.197 0.739 0.509 1.031 0.694l0.531 0.336v2.556l-0.734-0.465c-0.404-0.256-0.704-0.521-0.668-0.59s0.022-0.085-0.032-0.036c-0.146 0.132-0.587-0.141-0.488-0.302 0.053-0.085 0.028-0.103-0.064-0.046-0.086 0.053-0.497-0.125-0.964-0.418-0.448-0.281-0.832-0.511-0.853-0.511-0.126 0-2.43-1.475-2.381-1.524 0.060-0.060 0.015-0.070-0.565-0.131-0.267-0.028-0.316 0.022-0.336 0.342-0.204 3.295-0.347 4.937-0.43 4.937-0.056 0-0.069 0.085-0.029 0.19s0.034 0.555-0.014 1.001l-0.087 0.811-0.459-0.431c-0.252-0.237-0.584-0.539-0.738-0.67s-0.245-0.273-0.203-0.315c0.042-0.042 0.092-0.441 0.111-0.887s0.064-0.857 0.098-0.912c0.034-0.055 0.099-0.568 0.144-1.139s0.134-1.358 0.198-1.749c0.355-2.165-0.848-3.503-2.402-2.672-0.493 0.264-1.103 2.035-0.952 2.762 0.009 0.041-0.029 0.511-0.084 1.046l-0.099 0.972-0.266-0.254c-0.595-0.567-1.574-1.452-1.801-1.628-0.133-0.103-0.731-0.638-1.328-1.188-1.22-1.123-1.53-1.299-2.3-1.307-0.533-0.006-1.329 0.398-1.344 0.682-0.004 0.069-0.050 0.323-0.102 0.564s-0.042 0.579 0.023 0.75c0.065 0.171 0.121 0.365 0.124 0.431s0.088 0.151 0.188 0.188c0.352 0.13 2.702 2.418 2.624 2.555-0.043 0.076-0.034 0.097 0.021 0.048 0.112-0.101 0.43 0.131 1.386 1.012l0.662 0.611-1.21 0.283c-3.055 0.714-3.070 0.719-3.435 1.125-0.544 0.605-0.458 1.636 0.178 2.15 0.613 0.495 0.872 0.501 2.911 0.072 0.968-0.204 2.141-0.448 2.607-0.542s0.892-0.2 0.948-0.234c0.5-0.309 0.924-0.197 1.658 0.439 0.409 0.355 0.723 0.666 0.697 0.692-0.058 0.058-6.269 0.892-6.806 0.914-0.209 0.009-0.191 0.387 0.031 0.681 0.099 0.13 0.145 0.294 0.102 0.363s-0.023 0.092 0.043 0.051c0.162-0.1 0.581 0.622 0.468 0.806-0.054 0.087-0.034 0.11 0.050 0.058 0.078-0.048 0.232 0.066 0.354 0.262 0.118 0.191 0.402 0.639 0.631 0.994s0.416 0.695 0.416 0.755 0.166 0.303 0.37 0.541c0.203 0.238 0.372 0.48 0.375 0.538s0.121 0.269 0.264 0.469l0.259 0.363h-2.243l-1.23-1.719c-1.961-2.74-2.173-3.078-1.775-2.832 0.092 0.057 0.11 0.034 0.050-0.064-0.052-0.084-0.122-0.125-0.157-0.090s-0.29-0.103-0.569-0.304c-1.193-0.864-2.844-0.142-2.844 1.244 0 0.351 0.362 0.936 1.975 3.188l0.412 0.576-2.725 0.009c-3.13 0.010-3.607 0.050-4.037 0.338-0.172 0.115-0.345 0.2-0.385 0.188-0.195-0.056-0.383 1.221-0.242 1.647 0.31 0.94 0.475 0.978 4.27 0.974 3.252-0.003 3.363 0.005 3.206 0.228-1.919 2.738-2.35 3.454-2.35 3.915 0 1.162 1.037 1.82 2.18 1.384 0.524-0.2 0.691-0.387 1.978-2.217 0.773-1.099 1.476-2.072 1.561-2.161s0.156-0.197 0.156-0.239c0-0.536 0.567-0.816 1.653-0.816 1.267 0 1.236-0.106 0.362 1.246-0.246 0.38-0.449 0.72-0.451 0.754s-0.447 0.782-0.987 1.662c-0.541 0.88-0.951 1.631-0.912 1.67 0.072 0.073 1.622 0.417 1.96 0.436 0.103 0.006 0.975 0.122 1.938 0.257s2.014 0.277 2.336 0.313l0.586 0.066-0.648 0.601c-0.765 0.709-0.509 0.711-3.773-0.022-3.483-0.782-3.914-0.771-4.594 0.11-0.586 0.76-0.249 2.153 0.566 2.342 0.627 0.146 2.091 0.452 3.059 0.64 0.567 0.11 1.031 0.244 1.031 0.297 0 0.154-0.327 0.383-0.418 0.292-0.045-0.045-0.086-0.003-0.091 0.095-0.008 0.156-0.49 0.614-2.648 2.52-1.955 1.726-2.277 2.998-0.923 3.64 0.897 0.426 1.286 0.25 3.039-1.369 0.676-0.625 1.48-1.356 1.788-1.625s0.737-0.664 0.954-0.877l0.396-0.388 0.086 0.825c0.047 0.454 0.11 0.966 0.139 1.138 0.311 1.841 0.404 2.256 0.541 2.422 0.088 0.106 0.132 0.237 0.098 0.291s0.060 0.11 0.208 0.122c0.148 0.013 0.526 0.072 0.84 0.133 0.378 0.073 0.618 0.065 0.712-0.023 0.078-0.073 0.346-0.33 0.597-0.57l0.455-0.437-0.062-1.188c-0.065-1.241-0.115-1.712-0.342-3.229-0.076-0.504-0.105-0.949-0.066-0.989s0.009-0.147-0.068-0.239c-0.076-0.092-0.108-0.168-0.070-0.168s0.022-0.165-0.036-0.367c-0.096-0.337-0.049-0.42 0.564-1 0.725-0.686 0.765-0.71 0.772-0.477 0.003 0.086 0.074 1.056 0.158 2.156s0.19 2.506 0.235 3.125c0.093 1.284 0.132 1.31 1.053 0.701 1.692-1.117 1.971-1.275 2.107-1.192 0.093 0.058 0.115 0.038 0.058-0.054-0.052-0.084 0.005-0.179 0.137-0.225 0.125-0.044 0.395-0.202 0.602-0.351 0.521-0.376 2.313-1.449 2.313-1.384 0 0.029 0.183-0.114 0.406-0.319l0.406-0.371 0.036 1.158c0.023 0.721-0.013 1.174-0.093 1.201-0.071 0.024-0.772 0.512-1.557 1.085s-1.46 1.009-1.5 0.969-0.073-0.016-0.073 0.053c0 0.070-0.421 0.425-0.936 0.789-1.497 1.060-1.848 2.117-0.998 3.005 0.497 0.519 2.059 0.596 2.059 0.102 0-0.058 0.060-0.105 0.134-0.105s0.212-0.070 0.308-0.156c0.461-0.413 0.572-0.475 0.704-0.393 0.080 0.049 0.109 0.033 0.066-0.036-0.076-0.122 0.547-0.664 0.764-0.664 0.061 0 0.212-0.112 0.337-0.25s0.333-0.25 0.464-0.25 0.206-0.052 0.166-0.116c-0.040-0.064-0.014-0.152 0.057-0.196 0.088-0.054 0.119 0.901 0.096 2.991-0.018 1.689 0.012 3.071 0.068 3.071s0.070 0.050 0.033 0.111c-0.27 0.437 0.712 1.389 1.433 1.389 1.112 0 1.731-0.968 1.725-2.693-0.002-0.499 0.034-1.026 0.080-1.17 0.049-0.155 0.028-0.262-0.051-0.262-0.089 0-0.131-0.545-0.124-1.625 0.011-1.846-0.023-1.804 0.91-1.094 0.384 0.292 0.985 0.728 1.336 0.969s0.705 0.495 0.786 0.565c0.081 0.070 0.451 0.123 0.821 0.118 1.611-0.024 2.079-2.18 0.675-3.114-1.53-1.018-2.969-2.089-2.943-2.191 0.016-0.065-0.054-0.086-0.156-0.047s-0.187 0.023-0.189-0.036c-0.001-0.059-0.283-0.273-0.625-0.477l-0.622-0.37v-1.099c0-0.605 0.025-1.099 0.057-1.099 0.058 0 2.388 1.404 3.471 2.090 0.325 0.206 0.55 0.419 0.5 0.475s-0.020 0.059 0.067 0.010c0.090-0.052 0.399 0.072 0.725 0.292 0.312 0.211 0.618 0.383 0.679 0.383s0.199 0.125 0.306 0.278 0.195 0.233 0.195 0.177c0-0.055 0.2 0.023 0.444 0.174 0.608 0.376 0.581 0.518 0.592-3.117 0.012-3.751-0.024-3.663 1.064-2.612 0.881 0.851 0.859 0.745 0.535 2.711-0.132 0.798-0.276 1.775-0.322 2.17s-0.122 0.719-0.171 0.719c-0.462 0 0.116 2.086 0.68 2.456 1.427 0.935 2.286-0.335 2.635-3.893 0.041-0.413 0.086-0.765 0.102-0.784 0.099-0.117 1.082 0.967 0.999 1.102-0.067 0.108-0.047 0.127 0.060 0.061 0.102-0.063 0.351 0.105 0.707 0.476 0.302 0.315 0.549 0.551 0.549 0.523s0.492 0.428 1.094 1.013c1.485 1.444 2.169 1.66 3.013 0.953 1.061-0.89 0.719-1.815-1.423-3.84-0.985-0.932-1.649-1.651-1.601-1.735 0.045-0.079 0.037-0.103-0.017-0.054-0.146 0.132-0.587-0.141-0.488-0.302 0.048-0.078 0.029-0.103-0.045-0.058-0.171 0.106-0.484-0.271-0.334-0.401 0.086-0.075 3.137-0.718 3.857-0.813 0.471-0.062 1.033-1.327 0.829-1.864-0.065-0.172-0.085-0.347-0.044-0.389s0.010-0.075-0.070-0.075c-0.080 0-0.146-0.088-0.146-0.195s-0.048-0.165-0.106-0.129c-0.058 0.036-0.22-0.066-0.36-0.226-0.29-0.333-0.967-0.338-2.347-0.015-0.413 0.096-1.228 0.268-1.813 0.382s-1.175 0.232-1.313 0.264c-0.137 0.031-0.464 0.076-0.725 0.099s-0.51 0.077-0.552 0.119c-0.171 0.171-0.385 0.040-1.211-0.736l-0.864-0.812h0.402c0.261 0 0.372 0.048 0.317 0.137-0.062 0.1-0.015 0.1 0.171 0.001 0.141-0.075 0.386-0.138 0.546-0.139 0.971-0.007 1.292 0.027 1.365 0.146 0.058 0.094 0.096 0.094 0.129-0.002 0.051-0.15 0.623-0.221 2.67-0.336 1.602-0.089 1.525-0.053 1.248-0.581-0.119-0.228-0.28-0.54-0.357-0.694s-0.182-0.281-0.234-0.281c-0.051-0.001-0.094-0.055-0.094-0.121s-0.394-0.743-0.875-1.505c-0.481-0.762-0.875-1.435-0.875-1.495s-0.044-0.128-0.098-0.151c-0.054-0.023-0.253-0.309-0.443-0.635l-0.344-0.594 2.468 0.020 0.233 0.396c0.129 0.218 0.278 0.452 0.332 0.521 0.637 0.809 0.969 1.349 0.899 1.463-0.047 0.076-0.031 0.105 0.036 0.063s0.455 0.408 0.863 0.998c1.506 2.178 2.209 2.58 3.218 1.838 0.62-0.455 0.787-1.742 0.29-2.239-0.112-0.112-0.204-0.252-0.204-0.311s-0.082-0.189-0.181-0.288c-0.232-0.232-1.692-2.38-1.648-2.425 0.051-0.051 2.812-0.138 4.81-0.151l1.794-0.011 0.415-0.415c0.602-0.602 0.684-1.198 0.254-1.848-0.553-0.835-0.783-0.881-4.258-0.837-2.015 0.025-3.006-0.004-2.94-0.087 0.055-0.069 0.41-0.558 0.788-1.087s0.731-0.923 0.784-0.875c0.053 0.048 0.059 0.022 0.013-0.059s0.068-0.325 0.252-0.544c0.768-0.912 0.441-2.347-0.599-2.627-0.536-0.144-1.61 0.030-1.61 0.261 0 0.055-0.073 0.174-0.162 0.265s-0.469 0.614-0.844 1.162-0.725 1.054-0.778 1.125c-0.519 0.698-1.331 1.827-1.531 2.129-0.246 0.371-0.26 0.375-1.396 0.375h-1.147l0.269-0.437c0.148-0.241 0.508-0.786 0.799-1.213s0.794-1.214 1.118-1.75c0.324-0.536 0.622-1.003 0.664-1.037s0.255-0.343 0.475-0.687c0.481-0.752 0.419-0.851-0.655-1.051-1.453-0.27-3.493-0.619-4.188-0.717-1.038-0.146-1.091-0.17-0.812-0.37 0.137-0.099 0.504-0.428 0.815-0.731l0.565-0.551 1.060 0.236c0.583 0.13 1.482 0.327 1.998 0.437s1.078 0.25 1.25 0.311c0.294 0.103 0.575 0.154 1.823 0.329 1.381 0.194 2.367-1.642 1.353-2.521-0.346-0.3-1.749-0.807-2.252-0.814-0.13-0.002-0.726-0.128-1.325-0.281l-1.089-0.278 1.089-0.988c0.599-0.543 1.456-1.331 1.905-1.75s1.029-0.946 1.289-1.171c1.333-1.155 0.885-2.903-0.745-2.903-0.654 0-0.721 0.031-1.348 0.624-0.363 0.343-0.697 0.596-0.742 0.562s-0.056-0.025-0.022 0.019c0.033 0.045-0.043 0.171-0.17 0.281s-0.585 0.51-1.019 0.888c-0.434 0.378-0.84 0.672-0.902 0.653s-0.082 0.017-0.043 0.079c0.080 0.13-0.91 0.973-1.082 0.921-0.062-0.019-0.080 0.020-0.039 0.085s0.021 0.152-0.044 0.192c-0.161 0.099-0.236-0.206-0.315-1.27-0.212-2.861-0.607-3.661-1.806-3.661-1.584 0-1.745 0.793-1.121 5.525l0.276 2.087-0.507 0.475c-0.279 0.261-0.678 0.626-0.887 0.811l-0.38 0.336-0.141-0.836c-0.077-0.46-0.161-1.117-0.186-1.461s-0.075-0.709-0.11-0.813c-0.036-0.103-0.158-0.778-0.273-1.5-0.465-2.937-0.364-2.773-1.339-2.165-0.257 0.16-0.499 0.29-0.539 0.29s-0.264 0.145-0.497 0.323c-0.241 0.184-0.489 0.283-0.573 0.231-0.086-0.053-0.117-0.040-0.073 0.032 0.042 0.069-0.554 0.503-1.325 0.966-1.48 0.889-1.56 0.937-2.449 1.479-0.31 0.189-0.595 0.343-0.633 0.343s-0.069-0.55-0.069-1.222v-1.222l1.781-1.247c3.661-2.563 3.798-2.706 3.603-3.746-0.275-1.464-1.595-1.663-3.238-0.487-0.469 0.336-0.961 0.672-1.092 0.747s-0.352 0.238-0.49 0.363c-0.138 0.125-0.251 0.179-0.251 0.121s-0.070-0.010-0.156 0.107c-0.126 0.172-0.156-0.358-0.153-2.792l0.003-3.005 0.391-0.238c2.312-1.406 2.89-4.657 1.198-6.745-0.625-0.771-0.742-0.887-0.899-0.887-0.074 0-0.134-0.046-0.134-0.102 0-0.127-1.238-0.648-1.541-0.648-0.123 0-0.189-0.056-0.147-0.124 0.044-0.071-0.006-0.092-0.118-0.049-0.107 0.041-0.194 0.024-0.194-0.037 0-0.222-0.707-0.138-1.633 0.195zM32.722 3.817c0.769 0.384 1.154 0.982 1.144 1.781-0.006 0.472-0.041 0.631-0.105 0.468-0.087-0.222-0.103-0.213-0.161 0.090-0.040 0.209-0.017 0.307 0.062 0.258 0.173-0.107-0.011 0.202-0.337 0.566-0.396 0.442-0.661 0.55-0.957 0.391-0.218-0.117-0.252-0.104-0.219 0.085 0.055 0.314-0.36 0.366-0.68 0.086-0.144-0.126-0.221-0.159-0.171-0.073 0.22 0.377-0.533 0.065-1.084-0.449-0.282-0.263-0.334-0.396-0.274-0.703 0.056-0.286 0.042-0.333-0.057-0.192-0.201 0.288-0.173-0.667 0.034-1.162 0.17-0.407 0.979-1.213 1.218-1.213 0.070 0 0.102 0.042 0.070 0.094s0.19 0.094 0.492 0.094c0.357 0 0.551-0.055 0.551-0.156 0-0.197 0.007-0.196 0.472 0.036zM32.375 3.884c0 0.116 0.618 0.414 0.697 0.336 0.020-0.020-0.128-0.132-0.33-0.248s-0.367-0.155-0.367-0.088zM37.922 25.709c-0.012 0.401-0.028 1.492-0.034 2.425l-0.012 1.696-1.469 1.053c-0.808 0.579-1.487 1.096-1.51 1.148s-0.114 0.095-0.203 0.095c-0.089 0-0.234 0.087-0.323 0.194-0.332 0.4-0.662 0.492-0.579 0.161 0.041-0.163 0.083-1.322 0.093-2.576 0.015-1.784 0.054-2.279 0.182-2.279 0.090 0 0.182-0.045 0.205-0.101s0.323-0.291 0.667-0.523c0.344-0.232 0.653-0.454 0.688-0.493 0.242-0.276 1.025-0.757 1.129-0.693 0.070 0.043 0.112 0.004 0.093-0.087s0.063-0.158 0.183-0.148c0.12 0.009 0.19-0.028 0.156-0.083-0.066-0.107 0.579-0.628 0.691-0.558 0.037 0.023 0.057 0.369 0.045 0.77zM27.759 25.5c0.373 0.275 0.791 0.581 0.929 0.68 2.498 1.796 2.259 1.352 2.302 4.285 0.015 1.064 0.063 2.025 0.105 2.134 0.054 0.142-0.044 0.111-0.337-0.106-0.687-0.508-1.54-1.113-2.069-1.468-0.275-0.184-0.528-0.367-0.563-0.406s-0.273-0.198-0.531-0.355l-0.469-0.285-0.008-1.021c-0.005-0.562-0.036-1.682-0.070-2.49s-0.041-1.469-0.015-1.469c0.026 0 0.353 0.225 0.727 0.5zM43.35 31.382c1.523 0.012 2.009 0.052 1.927 0.161-0.061 0.080-0.744 0.948-1.519 1.93l-1.408 1.785-2.394-0.078c-1.316-0.043-2.414-0.097-2.438-0.121-0.082-0.081 1.389-1.872 1.508-1.837 0.065 0.019 0.083-0.022 0.041-0.090s0.038-0.196 0.178-0.283 0.255-0.227 0.255-0.31c0-0.083 0.098-0.209 0.219-0.279s0.174-0.129 0.12-0.131c-0.054-0.002 0.044-0.158 0.219-0.346s0.318-0.392 0.318-0.453c0-0.061 0.211-0.078 0.469-0.037s1.386 0.081 2.506 0.090zM25.771 31.954c0.228 0.266 0.518 0.579 0.645 0.695 0.132 0.121 0.191 0.277 0.138 0.363s-0.041 0.119 0.029 0.075c0.129-0.080 0.185-0.023 1.119 1.125 0.324 0.398 0.678 0.792 0.787 0.876 0.163 0.125 0.064 0.154-0.552 0.16-0.722 0.007-2.283 0.083-3.659 0.179-0.645 0.045-1.038-0.207-0.927-0.594 0.016-0.057-0.017-0.074-0.074-0.039s-0.213-0.082-0.347-0.261c-0.133-0.179-0.299-0.387-0.368-0.461-0.735-0.794-1.169-1.377-1.103-1.483 0.044-0.071 0.019-0.092-0.055-0.046-0.137 0.085-0.654-0.533-0.654-0.781 0-0.075 0.127-0.14 0.281-0.145s0.9-0.048 1.656-0.095c2.424-0.151 2.607-0.126 3.084 0.431zM27.421 37.787c-0.048 0.083-0.163 0.235-0.257 0.338-0.167 0.184-1.577 2.031-2.131 2.791-0.423 0.582-0.533 0.606-2.38 0.521-0.943-0.043-1.98-0.081-2.303-0.084l-0.588-0.005 0.213-0.328c0.281-0.434 0.612-0.762 0.702-0.697 0.040 0.029 0.047 0.017 0.015-0.027-0.067-0.092 0.683-1.164 1.433-2.047l0.521-0.614 2.43 0.001c1.857 0.001 2.41 0.036 2.344 0.151zM42.502 37.982c0.001 0.044 0.195 0.301 0.431 0.572s0.399 0.539 0.363 0.597c-0.036 0.058-0.013 0.090 0.051 0.071 0.111-0.033 1.669 1.74 1.907 2.17 0.102 0.184-0.123 0.215-2.29 0.317-2.733 0.129-2.37 0.243-3.383-1.065-0.264-0.341-0.573-0.724-0.687-0.852-0.523-0.585-1.395-1.649-1.395-1.702 0-0.032 0.408-0.070 0.906-0.084s1.553-0.065 2.344-0.113c1.417-0.086 1.748-0.069 1.752 0.089zM34.838 41.123c0.083 0.070 0.181 0.127 0.218 0.127 0.107 0 1.749 1.143 1.833 1.275 0.042 0.067 0.126 0.12 0.188 0.118 0.229-0.007 0.737 0.428 0.755 0.646 0.010 0.125 0.054 1.049 0.097 2.054s0.113 1.967 0.156 2.137l0.078 0.311-0.425-0.302c-0.234-0.166-0.522-0.358-0.641-0.427-2.284-1.32-3.113-1.973-3.081-2.425 0.018-0.251 0-0.511-0.039-0.578s-0.112-0.925-0.161-1.907l-0.088-1.785 0.48 0.315c0.264 0.173 0.548 0.371 0.631 0.441zM30.581 42.334c-0.146 3.224-0.103 3.073-1.066 3.67-1.864 1.155-2.455 1.532-2.515 1.606-0.289 0.359-0.646 0.393-0.577 0.055 0.039-0.194 0.106-1.28 0.148-2.415s0.129-2.082 0.193-2.105 0.185-0.111 0.27-0.196c0.333-0.332 0.838-0.591 0.98-0.503 0.085 0.053 0.117 0.040 0.074-0.029-0.105-0.17 0.39-0.569 0.574-0.463 0.083 0.047 0.107 0.038 0.053-0.020-0.093-0.102 1.277-1.058 1.516-1.058 0.064 0 0.149-0.084 0.188-0.188 0.191-0.498 0.237-0.032 0.16 1.646z"></path>
  </symbol>
  <symbol version="1.1" xmlns="http://www.w3.org/2000/svg" viewBox="0 0 128 128" id="snow">
    <path fill="#fff" d="M61.873 8.408c-1.257 0.297-2.754 1.479-3.479 2.747-0.24 0.421-0.498 3.22-0.606 6.583l-0.188 5.851-1.097-1.28c-4.324-5.045-6.001-5.957-9.453-5.146-5.089 1.197-5.714 6.791-1.316 11.786 3.503 3.978 5.234 5.96 7.295 8.348 1.106 1.282 2.627 3.001 3.378 3.82l1.367 1.49 0.009 9.751-1.188-0.713c-1.749-1.049-5.237-2.941-8.041-4.362-2.471-1.252-3.571-2.308-3.571-3.429 0-0.331-0.306-1.405-0.679-2.387-1.018-2.676-1.922-5.309-2.246-6.54-2.307-8.774-4.516-11.886-8.434-11.886-4.556 0-7.424 4.499-5.644 8.855 0.353 0.862 0.765 2.062 0.918 2.665s0.403 1.406 0.558 1.783c0.22 0.536-0.349 0.344-2.609-0.879-7.756-4.199-7.458-4.082-9.897-3.902-3.62 0.267-5.611 2.332-5.611 5.82 0 3.377 1.108 4.45 8.96 8.675 2.902 1.562 3.161 1.852 1.652 1.852-4.691 0-8.813 2.411-9.327 5.456-0.974 5.766 2.682 8.468 9.525 7.042 2.1-0.438 5.588-1.139 7.75-1.559s5.395-1.078 7.184-1.464c1.969-0.424 3.413-0.571 3.657-0.373 0.222 0.18 0.98 0.642 1.684 1.027 5.020 2.742 7.68 4.295 7.68 4.486 0 0.271-4.588 2.938-5.054 2.938-0.183 0-0.784 0.355-1.336 0.79-1.223 0.962-2.425 0.952-7.128-0.061-1.918-0.413-5.050-1.065-6.962-1.449s-4.709-0.957-6.217-1.274c-3.498-0.734-4.122-0.719-5.775 0.136-5.867 3.035-3.995 10.951 2.815 11.901 4.483 0.625 4.841 0.833 3.051 1.764-0.553 0.288-2.323 1.23-3.931 2.092s-3.507 1.86-4.217 2.216c-6.174 3.095-5.203 11.342 1.407 11.941 2.287 0.207 2.936-0.007 7.199-2.379 1.408-0.783 3.514-1.947 4.68-2.584l2.12-1.16-0.257 1.373c-0.142 0.755-0.558 2.033-0.924 2.839-2.409 5.303 1.64 10.772 6.922 9.35 3.326-0.895 3.454-1.139 8.536-16.294 2.289-6.825 1.372-5.891 10.465-10.66l2.285-1.199v14.423l-2.060 2.374c-1.133 1.306-2.984 3.43-4.114 4.72s-2.383 2.721-2.786 3.18c-0.402 0.459-1.554 1.766-2.56 2.902-4.552 5.146-4.739 8.965-0.577 11.769 2.928 1.974 6.198 0.906 9.59-3.13l2.325-2.766 0.194 4.918c0.27 6.826 1.48 8.53 6.060 8.53 4.624 0 5.993-1.981 6.009-8.694l0.011-4.792 0.943 1.097c5.19 6.038 8.83 7.133 12.189 3.668 3.313-3.418 1.696-7.846-5.425-14.864-0.329-0.325-1.504-1.639-2.61-2.921s-2.711-3.091-3.566-4.019l-1.554-1.689v-7.185c0-3.952 0.091-7.185 0.203-7.185s1.058 0.473 2.103 1.050c1.045 0.577 3.382 1.833 5.192 2.789 6.050 3.197 5.118 1.837 8.773 12.797 3.617 10.847 4.248 11.95 7.12 12.435 6.022 1.017 9.061-3.409 6.776-9.872-0.498-1.408-0.906-2.758-0.906-3.001-0.001-0.389 6.569 2.774 7.478 3.6 0.574 0.522 4.182 0.356 5.347-0.246 2.643-1.367 4.123-5.494 2.856-7.965-0.47-0.918-2.538-3.176-2.907-3.176-0.136 0-1.694-0.808-3.462-1.795l-3.214-1.795 1.43-0.397c0.787-0.219 1.771-0.398 2.187-0.399 4.389-0.012 8.013-3.91 7.15-7.691-0.942-4.125-3.797-5.584-8.946-4.572-5.249 1.032-9.836 1.962-13.475 2.733-4.73 1.002-5.788 0.959-8.074-0.325-1.053-0.591-3.069-1.702-4.479-2.469-4.774-2.594-4.71-2.213-0.727-4.334 2.566-1.366 5.397-2.898 7.945-4.298 1.336-0.734 1.418-0.737 4.388-0.12 1.665 0.346 4.672 0.965 6.684 1.375s5.009 1.060 6.661 1.444c6.838 1.59 10.71-0.362 10.71-5.398 0-3.775-1.237-5.015-6.328-6.345l-3.586-0.937 3.061-1.718c4.357-2.446 5.391-3.723 5.391-6.658 0-6.601-8.586-7.954-14.793-2.331-0.832 0.754-0.769 0.128 0.271-2.702 1.482-4.035 1.665-6.391 0.639-8.218-2.413-4.294-9.031-4.16-10.894 0.221-0.698 1.641-4.067 11.168-4.477 12.66-0.415 1.512-2.453 7.157-2.614 7.244-0.072 0.039-0.512 0.283-0.976 0.544s-1.946 1.064-3.291 1.786c-1.346 0.721-3.187 1.724-4.092 2.229-2.639 1.47-4.853 2.643-4.992 2.643-0.282 0-0.108-9.822 0.177-9.935 0.168-0.067 2.178-2.261 4.467-4.876s5.443-6.21 7.009-7.989l2.847-3.234v-2.561c0-3.982-2.053-6.148-5.827-6.148-2.519 0-3.037 0.303-6.144 3.596l-2.645 2.804-0.006-5.896-0.006-5.896-1.371-1.533c-1.766-1.974-3.751-2.532-6.607-1.856z"></path>
  </symbol>
  <symbol version="1.1" xmlns="http://www.w3.org/2000/svg" viewBox="0 0 64 64" id="search">
    <path fill="#fff" d="M62.016 54.462l-15.16-12.893c-1.567-1.41-3.243-2.058-4.597-1.995 3.578-4.192 5.74-9.63 5.74-15.573 0-13.255-10.745-24-24-24s-24 10.745-24 24 10.745 24 24 24c5.944 0 11.382-2.162 15.574-5.74-0.063 1.354 0.585 3.030 1.995 4.597l12.893 15.16c2.208 2.453 5.814 2.66 8.014 0.46s1.993-5.806-0.46-8.014zM24 40c-8.836 0-16-7.163-16-16s7.163-16 16-16 16 7.163 16 16-7.163 16-16 16z"></path>
  </symbol>
  <symbol version="1.1" xmlns="http://www.w3.org/2000/svg" viewBox="0 0 128 128" id="mute">
    <path fill="#fff" d="M64 18.244c-0.474 0.285-1.581 1.148-2.462 1.918-1.944 1.7-5.731 4.975-10.831 9.366-2.099 1.807-4.48 3.865-5.292 4.574s-3.6 3.124-6.195 5.37l-4.718 4.082-28.262 0.139-0.891 0.611c-0.49 0.336-1.147 1.056-1.459 1.6l-0.567 0.989v35.446l0.616 1.1c0.376 0.671 1 1.317 1.6 1.658l0.984 0.557 27.429 0.008 0.932 0.8c0.512 0.44 0.987 0.856 1.055 0.924 0.13 0.132 6.748 5.84 7.989 6.891 0.4 0.338 1.231 1.065 1.846 1.615s2.725 2.376 4.688 4.060c1.963 1.683 3.625 3.117 3.693 3.186 0.13 0.132 1.69 1.484 6.521 5.653 4.016 3.466 5.63 3.967 7.875 2.447 2.023-1.37 1.85 2.983 1.85-46.481v-43.889l-0.551-0.98c-1.124-2-3.941-2.791-5.849-1.643zM79.371 49.464c-0.549 0.245-1.178 0.719-1.398 1.056s-0.602 0.812-0.848 1.057c-0.546 0.544-1.054 2.144-1.059 3.334-0.009 2.127 0.555 2.97 4.959 7.407 4.587 4.621 4.459 4.368 2.817 5.597-0.257 0.192-0.644 0.566-0.862 0.83-0.623 0.758-0.871 1-1.703 1.657-0.429 0.338-0.781 0.754-0.782 0.923s-0.085 0.308-0.186 0.31c-0.578 0.007-3.484 3.358-3.92 4.52-1.434 3.823 1.619 8.032 5.826 8.032 2.582 0 3.090-0.316 7.36-4.576 2.113-2.109 3.971-3.941 4.129-4.072 0.202-0.168 1.477 0.957 4.321 3.812 2.575 2.585 4.374 4.193 4.974 4.444 1.776 0.742 5.803 0.354 5.803-0.559 0-0.198 0.067-0.294 0.148-0.213 0.332 0.332 1.822-1.416 2.213-2.597 1.129-3.398 0.516-4.711-4.621-9.906l-3.9-3.944 3.829-3.81c4.699-4.675 4.92-5.036 4.903-7.994-0.015-2.612-0.48-3.559-2.448-4.993-1.034-0.754-5.28-1.163-5.662-0.545-0.084 0.135-0.339 0.25-0.568 0.254-0.495 0.010-1.524 0.82-1.524 1.201 0 0.148-0.084 0.268-0.186 0.268-0.172 0-3.68 3.366-4.904 4.706-0.294 0.322-0.907 0.944-1.362 1.382l-0.826 0.795-3.93-3.951c-5.088-5.114-7.126-5.965-10.59-4.422z"></path>
  </symbol>
  <symbol version="1.1" xmlns="http://www.w3.org/2000/svg" viewBox="0 0 64 64" id="bell">
    <path fill="#fff" d="M31.416 2.188c-0.086 0.928-0.089 2.097-0.008 2.598 0.147 0.904 0.141 0.912-0.872 1.083-1.832 0.31-2.254 0.863-2.338 3.063-0.072 1.899-0.078 1.913-0.823 2.079-7.044 1.563-8.001 2.57-8.38 8.815-0.564 9.276-1.567 14.428-3.841 19.716-0.217 0.505-0.945 1.645-1.617 2.534-2.553 3.373-2.797 3.825-3.2 5.923-0.115 0.601 0.62 4.193 1.012 4.941 1.376 2.627 6.934 5.896 12.977 7.633 1.57 0.451 3.063 1.029 3.317 1.283 1.752 1.752 7.531 1.854 8.921 0.158 0.447-0.545 1.043-0.801 2.936-1.258 5.069-1.224 9.685-3.508 12.59-6.229 2.826-2.648 2.754-7.651-0.167-11.493-0.769-1.012-1.813-2.7-2.319-3.75s-1.005-2.085-1.108-2.298c-0.87-1.797-2.125-8.864-2.505-14.112-0.577-7.963-0.562-7.882-1.714-8.906-1.265-1.124-3.222-2.092-5.026-2.484-2.812-0.612-2.596-0.408-2.875-2.716-0.298-2.465-0.762-3.019-2.528-3.019h-1.097v-2.141c0-3.398-1.048-4.515-1.334-1.421z"></path>
  </symbol>
  <symbol version="1.1" xmlns="http://www.w3.org/2000/svg" viewBox="0 0 95 128" id="ballwhite">
    <path fill="#fff" d="M46.413 0.147c-1.43 0.646-1.431 0.65-1.431 9.221v7.193h-3.504c-4.952 0-6.29 0.491-7.578 2.778-0.741 1.316-0.715 1.006-0.753 8.868l-0.035 7.105-1.037 0.359c-17.373 6.022-29.551 21.113-31.827 39.44-0.242 1.947-0.278 8.672-0.057 10.471 1.747 14.187 8.686 25.903 20.109 33.95 11.9 8.383 27.903 10.765 41.776 6.218 27.516-9.019 40.708-40.165 27.987-66.078-5.524-11.252-16.252-20.61-27.688-24.154l-0.609-0.189-0.035-7.114c-0.038-7.872-0.012-7.561-0.753-8.877-1.288-2.287-2.626-2.778-7.575-2.778h-3.501l-0.029-7.402-0.030-7.402-0.267-0.516c-0.545-1.053-2.079-1.583-3.163-1.093zM56.56 21.59l0.282 0.221v11.31h-18.805v-11.31l0.282-0.221c0.444-0.349 17.798-0.349 18.242 0zM49.362 38.040c32.889 1.594 51.705 38.189 33.799 65.736-16.778 25.812-54.653 25.812-71.445 0-17.84-27.423 0.93-64.16 33.586-65.734 0.911-0.044 1.704-0.086 1.763-0.094s1.093 0.033 2.297 0.092zM30.822 52.777c-1.284 2.584-2.385 4.716-2.448 4.739s-2.41 0.373-5.216 0.778c-2.806 0.405-5.102 0.765-5.102 0.801s1.671 1.695 3.713 3.687c2.042 1.992 3.727 3.676 3.745 3.742s-0.357 2.391-0.833 5.166c-0.476 2.775-0.851 5.088-0.834 5.139s2.132-1.008 4.698-2.355l4.666-2.448 4.67 2.454c2.568 1.35 4.686 2.438 4.706 2.418 0.031-0.031-1.579-9.583-1.717-10.184-0.041-0.179 0.685-0.936 3.739-3.898 2.085-2.022 3.791-3.701 3.791-3.732s-2.344-0.392-5.209-0.803l-5.209-0.747-2.351-4.728c-1.293-2.6-2.379-4.728-2.414-4.728s-1.113 2.114-2.397 4.697zM59.294 88.319c-1.62 3.299-2.351 4.683-2.504 4.739-0.119 0.044-2.476 0.405-5.238 0.802s-5.038 0.737-5.057 0.755c-0.020 0.017 1.014 1.056 2.297 2.308s2.99 2.927 3.792 3.721l1.459 1.445-0.895 5.176c-0.492 2.847-0.882 5.189-0.867 5.205s2.135-1.078 4.709-2.43l4.681-2.459 4.663 2.451c2.564 1.348 4.681 2.435 4.703 2.414s-0.359-2.368-0.846-5.217l-0.886-5.18 2.609-2.541c4.675-4.553 4.955-4.831 4.903-4.882-0.028-0.028-2.376-0.388-5.217-0.8s-5.185-0.769-5.208-0.793c-0.023-0.023-1.076-2.142-2.339-4.708s-2.337-4.666-2.385-4.666c-0.048 0-1.117 2.097-2.375 4.659z"></path>
  </symbol>
  <symbol version="1.1" xmlns="http://www.w3.org/2000/svg" viewBox="0 0 128 128" id="audio">
    <path fill="#fff" d="M64 18.244c-0.474 0.285-1.581 1.148-2.462 1.918-1.944 1.7-5.731 4.975-10.831 9.366-2.099 1.807-4.48 3.865-5.292 4.574s-3.6 3.124-6.195 5.37l-4.718 4.082-28.262 0.139-0.891 0.611c-0.49 0.336-1.147 1.056-1.459 1.6l-0.567 0.989v35.446l0.616 1.1c0.376 0.671 1 1.317 1.6 1.658l0.984 0.557 27.429 0.008 0.932 0.8c0.512 0.44 0.987 0.856 1.055 0.924 0.13 0.132 6.748 5.84 7.989 6.891 0.4 0.338 1.231 1.065 1.846 1.615s2.725 2.376 4.688 4.060c1.963 1.683 3.625 3.117 3.693 3.186 0.13 0.132 1.69 1.484 6.521 5.653 4.016 3.466 5.63 3.967 7.875 2.447 2.023-1.37 1.85 2.983 1.85-46.481v-43.889l-0.551-0.98c-1.124-2-3.941-2.791-5.849-1.643zM102.625 18.777c-2.242 1.511-2.55 4.209-0.767 6.723 3.863 5.447 5.018 7.303 6.942 11.151 10.562 21.13 8.325 47.401-5.629 66.095-3.062 4.102-3.069 6.967-0.021 8.522 3.198 1.631 5.517-0.249 10.512-8.52 15.466-25.61 13.755-57.919-4.332-81.783-2.087-2.753-4.633-3.584-6.705-2.188zM91.454 30.1c-2.829 1.602-2.962 4.046-0.421 7.77 11.034 16.178 11.216 37.406 0.46 53.575-2.745 4.126-2.816 6.426-0.25 8.085 3.403 2.199 5.926 0.296 10.224-7.715 8.571-15.974 8.904-35.587 0.879-51.815-4.509-9.118-7.489-11.827-10.892-9.9zM79.272 42.289c-2.855 1.405-3.005 3.72-0.55 8.475 0.96 1.859 1.87 3.797 2.023 4.308 2.712 9.059 1.95 16.929-2.449 25.286-1.752 3.329-1.555 5.447 0.639 6.865 2.99 1.933 5.24 0.743 7.71-4.076 5.969-11.649 5.896-25.047-0.2-36.624-2.301-4.37-4.39-5.604-7.172-4.234z"></path>
  </symbol>
</svg>