<?xml version="1.0" standalone="no"?>
<!DOCTYPE svg PUBLIC "-//W3C//DTD SVG 20010904//EN"
 "http://www.w3.org/TR/2001/REC-SVG-20010904/DTD/svg10.dtd">
<svg version="1.0" xmlns="http://www.w3.org/2000/svg"
 width="1280.000000pt" height="1280.000000pt" viewBox="0 0 1280.000000 1280.000000"
 preserveAspectRatio="xMidYMid meet">
<metadata>
Created by potrace 1.15, written by Peter Selinger 2001-2017
</metadata>
<g transform="translate(0.000000,1280.000000) scale(0.100000,-0.100000)"
fill="#ffffff" stroke="none">
<path d="M6018 12630 c-395 -33 -778 -190 -916 -375 -23 -32 -50 -83 -59 -114
-15 -54 -15 -60 5 -136 23 -91 88 -453 81 -457 -216 -139 -361 -269 -447 -401
-117 -179 -143 -362 -73 -527 l30 -72 -102 -102 c-247 -244 -400 -522 -452
-822 -20 -115 -19 -335 1 -455 64 -371 302 -734 650 -991 80 -59 97 -78 73
-78 -21 0 -381 -220 -409 -250 -8 -9 -54 -49 -102 -89 -160 -133 -353 -353
-441 -504 -16 -27 -33 -47 -38 -45 -21 7 -1041 772 -1046 784 -3 7 -22 127
-42 266 l-37 253 -33 3 c-62 6 -61 13 -26 -225 18 -120 31 -220 30 -221 -2 -2
-58 37 -124 87 l-120 91 -36 -56 c-34 -53 -35 -57 -18 -69 79 -55 389 -288
391 -293 1 -4 -108 -6 -243 -4 l-245 3 0 -33 c0 -18 3 -42 6 -54 5 -20 12 -21
328 -27 l323 -6 414 -306 c228 -169 415 -310 417 -315 2 -4 -13 -45 -32 -91
-203 -494 -155 -1032 135 -1506 112 -182 296 -390 474 -532 17 -13 25 -26 19
-28 -6 -2 -51 -26 -100 -54 -514 -293 -926 -712 -1154 -1174 -149 -302 -220
-599 -220 -925 0 -230 31 -432 100 -640 434 -1322 2115 -2167 3865 -1944 1334
170 2414 934 2745 1944 69 208 100 410 100 640 0 308 -67 604 -199 884 -231
490 -678 945 -1214 1236 l-67 37 79 67 c334 282 567 659 653 1059 30 140 32
452 4 602 -22 121 -80 301 -132 410 -21 44 -38 83 -39 87 0 3 230 176 510 384
l510 379 368 6 c203 4 371 9 373 12 3 3 8 31 11 62 l6 57 -286 -4 c-157 -2
-284 -1 -281 3 2 4 106 83 232 175 125 92 229 169 232 171 5 4 -36 81 -59 112
-16 20 -19 18 -156 -83 -77 -57 -141 -103 -141 -103 -1 1 15 116 36 254 20
139 35 255 32 258 -3 3 -27 5 -54 5 -39 0 -48 -3 -48 -17 -1 -10 -20 -148 -44
-306 -36 -243 -45 -290 -62 -301 -10 -8 -297 -221 -638 -474 l-618 -461 -57
79 c-120 167 -283 332 -479 485 -78 61 -299 197 -369 229 -24 11 -43 22 -43
25 0 3 31 27 68 53 161 114 330 288 443 456 112 167 180 327 221 515 28 134
31 379 5 509 -86 432 -378 822 -814 1089 -40 24 -73 47 -73 51 0 4 16 33 36
63 78 123 114 275 94 396 -41 240 -249 432 -595 550 l-110 37 -27 164 c-15 90
-32 203 -37 251 -16 143 -71 212 -226 287 -172 83 -449 122 -717 100z"/>
</g>
</svg>
